# xmcd CD database file
#
# Track frame offsets:
#	150
#	27518
#	43242
#	53682
#	70596
#	80248
#	97607
#	115044
#	136488
#	167130
#	184812
#	205714
#	227021
#	244889
#
# Disc length: 3467 seconds
#
# Revision: 0
# Processed by: cddbd v1.5.2PL0 Copyright (c) Steve Scherf et al.
# Submitted via: CDex 1.51
#
DISCID=ba0d890e
DTITLE=Robin Miller - Sedona Nights
DYEAR=2010
DGENRE=New Age
TTITLE0=Mystical Moon
TTITLE1=A Child's Eyes
TTITLE2=Renaissance Suite
TTITLE3=Sedona Nights
TTITLE4=Romancing Spirits
TTITLE5=Forever Yours
TTITLE6=Desire
TTITLE7=A Midsummer Morn
TTITLE8=Singing Guitars
TTITLE9=My Scottish Lass
TTITLE10=Inner Guidance
TTITLE11=In Her Dreams
TTITLE12=A Serenade to Love
TTITLE13=Afterglow
EXTD=YEAR: 2010
EXTT0=
EXTT1=
EXTT2=
EXTT3=
EXTT4=
EXTT5=
EXTT6=
EXTT7=
EXTT8=
EXTT9=
EXTT10=
EXTT11=
EXTT12=
EXTT13=
PLAYORDER=
